<mxfile host="app.diagrams.net" agent="Mozilla/5.0 (Windows NT 10.0; Win64; x64) AppleWebKit/537.36 (KHTML, like Gecko) Chrome/130.0.0.0 YaBrowser/24.12.0.0 Safari/537.36" version="25.0.3">
  <diagram name="Страница — 1" id="D4YhXrmSbIg7yrwbSsYh">
    <mxGraphModel dx="1881" dy="582" grid="1" gridSize="10" guides="1" tooltips="1" connect="1" arrows="1" fold="1" page="1" pageScale="1" pageWidth="827" pageHeight="1169" math="0" shadow="0">
      <root>
        <mxCell id="0" />
        <mxCell id="1" parent="0" />
        <mxCell id="qd5W6ckzDFumrlFmZ_Lt-3" style="edgeStyle=orthogonalEdgeStyle;rounded=0;orthogonalLoop=1;jettySize=auto;html=1;" edge="1" parent="1" source="qd5W6ckzDFumrlFmZ_Lt-1" target="qd5W6ckzDFumrlFmZ_Lt-9">
          <mxGeometry relative="1" as="geometry">
            <mxPoint x="414" y="240" as="targetPoint" />
          </mxGeometry>
        </mxCell>
        <mxCell id="qd5W6ckzDFumrlFmZ_Lt-1" value="Начало" style="ellipse;whiteSpace=wrap;html=1;aspect=fixed;" vertex="1" parent="1">
          <mxGeometry x="374" y="50" width="80" height="80" as="geometry" />
        </mxCell>
        <mxCell id="qd5W6ckzDFumrlFmZ_Lt-5" value="" style="endArrow=none;dashed=1;html=1;rounded=0;" edge="1" parent="1">
          <mxGeometry width="50" height="50" relative="1" as="geometry">
            <mxPoint x="420" y="180" as="sourcePoint" />
            <mxPoint x="520" y="180" as="targetPoint" />
          </mxGeometry>
        </mxCell>
        <mxCell id="qd5W6ckzDFumrlFmZ_Lt-6" value="" style="endArrow=none;html=1;rounded=0;" edge="1" parent="1">
          <mxGeometry width="50" height="50" relative="1" as="geometry">
            <mxPoint x="650" y="240" as="sourcePoint" />
            <mxPoint x="640" y="130" as="targetPoint" />
            <Array as="points">
              <mxPoint x="520" y="240" />
              <mxPoint x="520" y="130" />
            </Array>
          </mxGeometry>
        </mxCell>
        <mxCell id="qd5W6ckzDFumrlFmZ_Lt-8" value="#include &lt;iostream&gt;&#xa;#include &lt;clocale&gt;&#xa;#include &lt;cmath&gt; &#xa;using namespace std;" style="text;whiteSpace=wrap;" vertex="1" parent="1">
          <mxGeometry x="530" y="150" width="150" height="80" as="geometry" />
        </mxCell>
        <mxCell id="qd5W6ckzDFumrlFmZ_Lt-10" style="edgeStyle=orthogonalEdgeStyle;rounded=0;orthogonalLoop=1;jettySize=auto;html=1;" edge="1" parent="1" source="qd5W6ckzDFumrlFmZ_Lt-9" target="qd5W6ckzDFumrlFmZ_Lt-11">
          <mxGeometry relative="1" as="geometry">
            <mxPoint x="414" y="350" as="targetPoint" />
          </mxGeometry>
        </mxCell>
        <mxCell id="qd5W6ckzDFumrlFmZ_Lt-9" value="int main()" style="shape=process;whiteSpace=wrap;html=1;backgroundOutline=1;" vertex="1" parent="1">
          <mxGeometry x="354" y="260" width="120" height="60" as="geometry" />
        </mxCell>
        <mxCell id="qd5W6ckzDFumrlFmZ_Lt-12" style="edgeStyle=orthogonalEdgeStyle;rounded=0;orthogonalLoop=1;jettySize=auto;html=1;" edge="1" parent="1" source="qd5W6ckzDFumrlFmZ_Lt-11" target="qd5W6ckzDFumrlFmZ_Lt-13">
          <mxGeometry relative="1" as="geometry">
            <mxPoint x="414" y="440" as="targetPoint" />
          </mxGeometry>
        </mxCell>
        <mxCell id="qd5W6ckzDFumrlFmZ_Lt-11" value="setlocale(LC_ALL, &quot;RU&quot;);" style="rounded=0;whiteSpace=wrap;html=1;" vertex="1" parent="1">
          <mxGeometry x="336" y="350" width="156" height="60" as="geometry" />
        </mxCell>
        <mxCell id="qd5W6ckzDFumrlFmZ_Lt-14" style="edgeStyle=orthogonalEdgeStyle;rounded=0;orthogonalLoop=1;jettySize=auto;html=1;" edge="1" parent="1" source="qd5W6ckzDFumrlFmZ_Lt-13" target="qd5W6ckzDFumrlFmZ_Lt-15">
          <mxGeometry relative="1" as="geometry">
            <mxPoint x="414" y="520" as="targetPoint" />
          </mxGeometry>
        </mxCell>
        <mxCell id="qd5W6ckzDFumrlFmZ_Lt-13" value="double a, b, f1a, f1b, x0, x1, x00, E, nn;" style="rounded=0;whiteSpace=wrap;html=1;" vertex="1" parent="1">
          <mxGeometry x="221" y="430" width="386" height="60" as="geometry" />
        </mxCell>
        <mxCell id="qd5W6ckzDFumrlFmZ_Lt-16" style="edgeStyle=orthogonalEdgeStyle;rounded=0;orthogonalLoop=1;jettySize=auto;html=1;" edge="1" parent="1" source="qd5W6ckzDFumrlFmZ_Lt-15">
          <mxGeometry relative="1" as="geometry">
            <mxPoint x="414" y="600" as="targetPoint" />
          </mxGeometry>
        </mxCell>
        <mxCell id="qd5W6ckzDFumrlFmZ_Lt-15" value="&amp;nbsp;cout &amp;lt;&amp;lt; &quot;Введите промежуток [a,b] внутри которого функция будет непрерывна и внутри которого необходимо найти x для функции &quot; &amp;lt;&amp;lt; endl &amp;lt;&amp;lt; &quot;0,1x^2 – x*ln(x) = 0&quot; &amp;lt;&amp;lt; endl;" style="shape=parallelogram;perimeter=parallelogramPerimeter;whiteSpace=wrap;html=1;fixedSize=1;" vertex="1" parent="1">
          <mxGeometry x="-34" y="520" width="896" height="60" as="geometry" />
        </mxCell>
        <mxCell id="qd5W6ckzDFumrlFmZ_Lt-18" style="edgeStyle=orthogonalEdgeStyle;rounded=0;orthogonalLoop=1;jettySize=auto;html=1;" edge="1" parent="1" target="qd5W6ckzDFumrlFmZ_Lt-19">
          <mxGeometry relative="1" as="geometry">
            <mxPoint x="414" y="690" as="targetPoint" />
            <mxPoint x="414" y="660" as="sourcePoint" />
          </mxGeometry>
        </mxCell>
        <mxCell id="qd5W6ckzDFumrlFmZ_Lt-19" value="f1a = 0.1 * pow(a, 2) - a * log(a);" style="rounded=0;whiteSpace=wrap;html=1;" vertex="1" parent="1">
          <mxGeometry x="321" y="680" width="186" height="60" as="geometry" />
        </mxCell>
        <mxCell id="qd5W6ckzDFumrlFmZ_Lt-22" style="edgeStyle=orthogonalEdgeStyle;rounded=0;orthogonalLoop=1;jettySize=auto;html=1;entryX=0.5;entryY=0;entryDx=0;entryDy=0;" edge="1" parent="1" source="qd5W6ckzDFumrlFmZ_Lt-20" target="qd5W6ckzDFumrlFmZ_Lt-21">
          <mxGeometry relative="1" as="geometry" />
        </mxCell>
        <mxCell id="qd5W6ckzDFumrlFmZ_Lt-20" value="f1a = 0.1 * pow(exp(1.0), 0.1 * a);" style="rounded=0;whiteSpace=wrap;html=1;" vertex="1" parent="1">
          <mxGeometry x="321" y="680" width="186" height="60" as="geometry" />
        </mxCell>
        <mxCell id="qd5W6ckzDFumrlFmZ_Lt-39" style="edgeStyle=orthogonalEdgeStyle;rounded=0;orthogonalLoop=1;jettySize=auto;html=1;entryX=0.5;entryY=0;entryDx=0;entryDy=0;" edge="1" parent="1" source="qd5W6ckzDFumrlFmZ_Lt-21" target="qd5W6ckzDFumrlFmZ_Lt-29">
          <mxGeometry relative="1" as="geometry" />
        </mxCell>
        <mxCell id="qd5W6ckzDFumrlFmZ_Lt-21" value="f1b = 0.1 * pow(exp(1.0), 0.1 * b);" style="rounded=0;whiteSpace=wrap;html=1;" vertex="1" parent="1">
          <mxGeometry x="321" y="760" width="186" height="60" as="geometry" />
        </mxCell>
        <mxCell id="qd5W6ckzDFumrlFmZ_Lt-23" value="cin &amp;gt;&amp;gt; a &amp;gt;&amp;gt; b;" style="shape=parallelogram;perimeter=parallelogramPerimeter;whiteSpace=wrap;html=1;fixedSize=1;" vertex="1" parent="1">
          <mxGeometry x="354" y="600" width="120" height="60" as="geometry" />
        </mxCell>
        <mxCell id="qd5W6ckzDFumrlFmZ_Lt-30" style="edgeStyle=orthogonalEdgeStyle;rounded=0;orthogonalLoop=1;jettySize=auto;html=1;" edge="1" parent="1" source="qd5W6ckzDFumrlFmZ_Lt-29" target="qd5W6ckzDFumrlFmZ_Lt-31">
          <mxGeometry relative="1" as="geometry">
            <mxPoint x="282" y="930" as="targetPoint" />
          </mxGeometry>
        </mxCell>
        <mxCell id="qd5W6ckzDFumrlFmZ_Lt-40" style="edgeStyle=orthogonalEdgeStyle;rounded=0;orthogonalLoop=1;jettySize=auto;html=1;" edge="1" parent="1" source="qd5W6ckzDFumrlFmZ_Lt-29" target="qd5W6ckzDFumrlFmZ_Lt-41">
          <mxGeometry relative="1" as="geometry">
            <mxPoint x="730" y="990" as="targetPoint" />
          </mxGeometry>
        </mxCell>
        <mxCell id="qd5W6ckzDFumrlFmZ_Lt-29" value="if ((abs(f1a) &amp;lt; 1) and ((abs(f1b) &amp;lt; 1)))" style="rhombus;whiteSpace=wrap;html=1;" vertex="1" parent="1">
          <mxGeometry x="297" y="848" width="234" height="80" as="geometry" />
        </mxCell>
        <mxCell id="qd5W6ckzDFumrlFmZ_Lt-31" value="cout &amp;lt;&amp;lt; &quot;т.к |f(a)| &amp;lt; 1, то первой точки x0 будем считать из x=b=2&quot; &amp;lt;&amp;lt; endl;" style="shape=parallelogram;perimeter=parallelogramPerimeter;whiteSpace=wrap;html=1;fixedSize=1;" vertex="1" parent="1">
          <mxGeometry x="-190" y="940" width="429.5" height="60" as="geometry" />
        </mxCell>
        <mxCell id="qd5W6ckzDFumrlFmZ_Lt-34" style="edgeStyle=orthogonalEdgeStyle;rounded=0;orthogonalLoop=1;jettySize=auto;html=1;exitX=0.5;exitY=1;exitDx=0;exitDy=0;" edge="1" parent="1" source="qd5W6ckzDFumrlFmZ_Lt-31">
          <mxGeometry relative="1" as="geometry">
            <mxPoint x="432" y="1150" as="targetPoint" />
            <mxPoint x="140" y="1090" as="sourcePoint" />
            <Array as="points">
              <mxPoint x="25" y="1150" />
            </Array>
          </mxGeometry>
        </mxCell>
        <mxCell id="qd5W6ckzDFumrlFmZ_Lt-36" value="1" style="text;html=1;align=center;verticalAlign=middle;resizable=0;points=[];autosize=1;strokeColor=none;fillColor=none;" vertex="1" parent="1">
          <mxGeometry x="197" y="848" width="30" height="30" as="geometry" />
        </mxCell>
        <mxCell id="qd5W6ckzDFumrlFmZ_Lt-37" value="0" style="text;html=1;align=center;verticalAlign=middle;resizable=0;points=[];autosize=1;strokeColor=none;fillColor=none;" vertex="1" parent="1">
          <mxGeometry x="537" y="848" width="30" height="30" as="geometry" />
        </mxCell>
        <mxCell id="qd5W6ckzDFumrlFmZ_Lt-38" value="{" style="text;html=1;align=center;verticalAlign=middle;resizable=0;points=[];autosize=1;strokeColor=none;fillColor=none;" vertex="1" parent="1">
          <mxGeometry x="187" y="888" width="30" height="30" as="geometry" />
        </mxCell>
        <mxCell id="qd5W6ckzDFumrlFmZ_Lt-42" style="edgeStyle=orthogonalEdgeStyle;rounded=0;orthogonalLoop=1;jettySize=auto;html=1;" edge="1" parent="1" source="qd5W6ckzDFumrlFmZ_Lt-41">
          <mxGeometry relative="1" as="geometry">
            <mxPoint x="430" y="1150" as="targetPoint" />
            <Array as="points">
              <mxPoint x="815" y="1150" />
            </Array>
          </mxGeometry>
        </mxCell>
        <mxCell id="qd5W6ckzDFumrlFmZ_Lt-41" value="cout &lt;&lt; &quot;Некорректно введены промежутки, дальнейшие вычисления будут неверны&quot; &lt;&lt; endl;" style="shape=parallelogram;perimeter=parallelogramPerimeter;whiteSpace=wrap;html=1;fixedSize=1;" vertex="1" parent="1">
          <mxGeometry x="540" y="940" width="550" height="60" as="geometry" />
        </mxCell>
        <mxCell id="qd5W6ckzDFumrlFmZ_Lt-43" value="" style="endArrow=classic;html=1;rounded=0;" edge="1" parent="1" target="qd5W6ckzDFumrlFmZ_Lt-44">
          <mxGeometry width="50" height="50" relative="1" as="geometry">
            <mxPoint x="430" y="1150" as="sourcePoint" />
            <mxPoint x="430" y="1260" as="targetPoint" />
          </mxGeometry>
        </mxCell>
        <mxCell id="qd5W6ckzDFumrlFmZ_Lt-45" style="edgeStyle=orthogonalEdgeStyle;rounded=0;orthogonalLoop=1;jettySize=auto;html=1;" edge="1" parent="1" source="qd5W6ckzDFumrlFmZ_Lt-44" target="qd5W6ckzDFumrlFmZ_Lt-46">
          <mxGeometry relative="1" as="geometry">
            <mxPoint x="432" y="1270" as="targetPoint" />
          </mxGeometry>
        </mxCell>
        <mxCell id="qd5W6ckzDFumrlFmZ_Lt-44" value="&amp;nbsp;E = 0.00001;" style="rounded=0;whiteSpace=wrap;html=1;" vertex="1" parent="1">
          <mxGeometry x="372" y="1180" width="120" height="60" as="geometry" />
        </mxCell>
        <mxCell id="qd5W6ckzDFumrlFmZ_Lt-47" style="edgeStyle=orthogonalEdgeStyle;rounded=0;orthogonalLoop=1;jettySize=auto;html=1;" edge="1" parent="1" source="qd5W6ckzDFumrlFmZ_Lt-46" target="qd5W6ckzDFumrlFmZ_Lt-48">
          <mxGeometry relative="1" as="geometry">
            <mxPoint x="432" y="1340" as="targetPoint" />
          </mxGeometry>
        </mxCell>
        <mxCell id="qd5W6ckzDFumrlFmZ_Lt-46" value="&amp;nbsp;x0 = pow(exp(1.0), 0.1 * b);" style="rounded=0;whiteSpace=wrap;html=1;" vertex="1" parent="1">
          <mxGeometry x="349" y="1260" width="166" height="60" as="geometry" />
        </mxCell>
        <mxCell id="qd5W6ckzDFumrlFmZ_Lt-49" style="edgeStyle=orthogonalEdgeStyle;rounded=0;orthogonalLoop=1;jettySize=auto;html=1;" edge="1" parent="1" source="qd5W6ckzDFumrlFmZ_Lt-48" target="qd5W6ckzDFumrlFmZ_Lt-50">
          <mxGeometry relative="1" as="geometry">
            <mxPoint x="432" y="1420" as="targetPoint" />
          </mxGeometry>
        </mxCell>
        <mxCell id="qd5W6ckzDFumrlFmZ_Lt-48" value="x1 = pow(exp(1.0), 0.1 * x0);" style="rounded=0;whiteSpace=wrap;html=1;" vertex="1" parent="1">
          <mxGeometry x="348" y="1340" width="168" height="60" as="geometry" />
        </mxCell>
        <mxCell id="qd5W6ckzDFumrlFmZ_Lt-51" style="edgeStyle=orthogonalEdgeStyle;rounded=0;orthogonalLoop=1;jettySize=auto;html=1;" edge="1" parent="1" source="qd5W6ckzDFumrlFmZ_Lt-50" target="qd5W6ckzDFumrlFmZ_Lt-52">
          <mxGeometry relative="1" as="geometry">
            <mxPoint x="432" y="1520" as="targetPoint" />
          </mxGeometry>
        </mxCell>
        <mxCell id="qd5W6ckzDFumrlFmZ_Lt-50" value="nn = 1;" style="rounded=0;whiteSpace=wrap;html=1;" vertex="1" parent="1">
          <mxGeometry x="372" y="1420" width="120" height="60" as="geometry" />
        </mxCell>
        <mxCell id="qd5W6ckzDFumrlFmZ_Lt-53" style="edgeStyle=orthogonalEdgeStyle;rounded=0;orthogonalLoop=1;jettySize=auto;html=1;" edge="1" parent="1" source="qd5W6ckzDFumrlFmZ_Lt-52" target="qd5W6ckzDFumrlFmZ_Lt-54">
          <mxGeometry relative="1" as="geometry">
            <mxPoint x="432" y="1600" as="targetPoint" />
          </mxGeometry>
        </mxCell>
        <mxCell id="qd5W6ckzDFumrlFmZ_Lt-62" style="edgeStyle=orthogonalEdgeStyle;rounded=0;orthogonalLoop=1;jettySize=auto;html=1;exitX=1;exitY=0.5;exitDx=0;exitDy=0;" edge="1" parent="1" source="qd5W6ckzDFumrlFmZ_Lt-52" target="qd5W6ckzDFumrlFmZ_Lt-63">
          <mxGeometry relative="1" as="geometry">
            <mxPoint x="660" y="1610" as="targetPoint" />
          </mxGeometry>
        </mxCell>
        <mxCell id="qd5W6ckzDFumrlFmZ_Lt-52" value="&amp;nbsp;while (abs(x1 - x0) &amp;gt;= E)" style="rhombus;whiteSpace=wrap;html=1;" vertex="1" parent="1">
          <mxGeometry x="353" y="1500" width="158" height="80" as="geometry" />
        </mxCell>
        <mxCell id="qd5W6ckzDFumrlFmZ_Lt-55" style="edgeStyle=orthogonalEdgeStyle;rounded=0;orthogonalLoop=1;jettySize=auto;html=1;" edge="1" parent="1" source="qd5W6ckzDFumrlFmZ_Lt-54" target="qd5W6ckzDFumrlFmZ_Lt-56">
          <mxGeometry relative="1" as="geometry">
            <mxPoint x="432" y="1690" as="targetPoint" />
          </mxGeometry>
        </mxCell>
        <mxCell id="qd5W6ckzDFumrlFmZ_Lt-54" value="&amp;nbsp;x0 = pow(exp(1.0), 0.1 * x1);" style="rounded=0;whiteSpace=wrap;html=1;" vertex="1" parent="1">
          <mxGeometry x="348" y="1600" width="168" height="60" as="geometry" />
        </mxCell>
        <mxCell id="qd5W6ckzDFumrlFmZ_Lt-57" style="edgeStyle=orthogonalEdgeStyle;rounded=0;orthogonalLoop=1;jettySize=auto;html=1;" edge="1" parent="1" source="qd5W6ckzDFumrlFmZ_Lt-56" target="qd5W6ckzDFumrlFmZ_Lt-58">
          <mxGeometry relative="1" as="geometry">
            <mxPoint x="432" y="1760" as="targetPoint" />
          </mxGeometry>
        </mxCell>
        <mxCell id="qd5W6ckzDFumrlFmZ_Lt-56" value="x1 = pow(exp(1.0), 0.1 * x0);" style="rounded=0;whiteSpace=wrap;html=1;" vertex="1" parent="1">
          <mxGeometry x="353" y="1680" width="158" height="60" as="geometry" />
        </mxCell>
        <mxCell id="qd5W6ckzDFumrlFmZ_Lt-61" style="edgeStyle=orthogonalEdgeStyle;rounded=0;orthogonalLoop=1;jettySize=auto;html=1;entryX=0;entryY=0.5;entryDx=0;entryDy=0;" edge="1" parent="1" source="qd5W6ckzDFumrlFmZ_Lt-58" target="qd5W6ckzDFumrlFmZ_Lt-52">
          <mxGeometry relative="1" as="geometry">
            <mxPoint x="220" y="1540" as="targetPoint" />
            <Array as="points">
              <mxPoint x="432" y="1840" />
              <mxPoint x="211" y="1840" />
              <mxPoint x="211" y="1540" />
            </Array>
          </mxGeometry>
        </mxCell>
        <mxCell id="qd5W6ckzDFumrlFmZ_Lt-58" value="nn++;" style="rounded=0;whiteSpace=wrap;html=1;" vertex="1" parent="1">
          <mxGeometry x="372" y="1760" width="120" height="60" as="geometry" />
        </mxCell>
        <mxCell id="qd5W6ckzDFumrlFmZ_Lt-59" value="{" style="text;html=1;align=center;verticalAlign=middle;resizable=0;points=[];autosize=1;strokeColor=none;fillColor=none;" vertex="1" parent="1">
          <mxGeometry x="395" y="1568" width="30" height="30" as="geometry" />
        </mxCell>
        <mxCell id="qd5W6ckzDFumrlFmZ_Lt-60" value="1" style="text;html=1;align=center;verticalAlign=middle;resizable=0;points=[];autosize=1;strokeColor=none;fillColor=none;" vertex="1" parent="1">
          <mxGeometry x="445" y="1568" width="30" height="30" as="geometry" />
        </mxCell>
        <mxCell id="qd5W6ckzDFumrlFmZ_Lt-64" style="edgeStyle=orthogonalEdgeStyle;rounded=0;orthogonalLoop=1;jettySize=auto;html=1;" edge="1" parent="1" source="qd5W6ckzDFumrlFmZ_Lt-63" target="qd5W6ckzDFumrlFmZ_Lt-65">
          <mxGeometry relative="1" as="geometry">
            <mxPoint x="840" y="1690" as="targetPoint" />
          </mxGeometry>
        </mxCell>
        <mxCell id="qd5W6ckzDFumrlFmZ_Lt-63" value="cout &amp;lt;&amp;lt; &quot;Программа выполнила &quot; &amp;lt;&amp;lt; nn &amp;lt;&amp;lt; &quot; операций, x с точностью до 0.00001: &quot; &amp;lt;&amp;lt; x1;" style="shape=parallelogram;perimeter=parallelogramPerimeter;whiteSpace=wrap;html=1;fixedSize=1;" vertex="1" parent="1">
          <mxGeometry x="580" y="1600" width="520" height="60" as="geometry" />
        </mxCell>
        <mxCell id="qd5W6ckzDFumrlFmZ_Lt-66" style="edgeStyle=orthogonalEdgeStyle;rounded=0;orthogonalLoop=1;jettySize=auto;html=1;" edge="1" parent="1" source="qd5W6ckzDFumrlFmZ_Lt-65" target="qd5W6ckzDFumrlFmZ_Lt-67">
          <mxGeometry relative="1" as="geometry">
            <mxPoint x="840" y="1780" as="targetPoint" />
          </mxGeometry>
        </mxCell>
        <mxCell id="qd5W6ckzDFumrlFmZ_Lt-65" value="return 0;" style="rounded=0;whiteSpace=wrap;html=1;" vertex="1" parent="1">
          <mxGeometry x="780" y="1680" width="120" height="60" as="geometry" />
        </mxCell>
        <mxCell id="qd5W6ckzDFumrlFmZ_Lt-67" value="Конец" style="ellipse;whiteSpace=wrap;html=1;aspect=fixed;" vertex="1" parent="1">
          <mxGeometry x="800" y="1760" width="80" height="80" as="geometry" />
        </mxCell>
        <mxCell id="qd5W6ckzDFumrlFmZ_Lt-68" value="0" style="text;html=1;align=center;verticalAlign=middle;resizable=0;points=[];autosize=1;strokeColor=none;fillColor=none;" vertex="1" parent="1">
          <mxGeometry x="725" y="1498" width="30" height="30" as="geometry" />
        </mxCell>
        <mxCell id="qd5W6ckzDFumrlFmZ_Lt-70" value="}" style="text;html=1;align=center;verticalAlign=middle;resizable=0;points=[];autosize=1;strokeColor=none;fillColor=none;" vertex="1" parent="1">
          <mxGeometry x="305" y="1808" width="30" height="30" as="geometry" />
        </mxCell>
        <mxCell id="qd5W6ckzDFumrlFmZ_Lt-71" value="{" style="text;html=1;align=center;verticalAlign=middle;resizable=0;points=[];autosize=1;strokeColor=none;fillColor=none;" vertex="1" parent="1">
          <mxGeometry x="695" y="908" width="30" height="30" as="geometry" />
        </mxCell>
        <mxCell id="qd5W6ckzDFumrlFmZ_Lt-72" value="}" style="text;html=1;align=center;verticalAlign=middle;resizable=0;points=[];autosize=1;strokeColor=none;fillColor=none;" vertex="1" parent="1">
          <mxGeometry x="655" y="1128" width="30" height="30" as="geometry" />
        </mxCell>
        <mxCell id="qd5W6ckzDFumrlFmZ_Lt-73" value="}" style="text;html=1;align=center;verticalAlign=middle;resizable=0;points=[];autosize=1;strokeColor=none;fillColor=none;" vertex="1" parent="1">
          <mxGeometry x="195" y="1118" width="30" height="30" as="geometry" />
        </mxCell>
      </root>
    </mxGraphModel>
  </diagram>
</mxfile>
